solid OpenSCAD_Model
  facet normal 0 1 0
    outer loop
      vertex -19 28.5 0
      vertex 19 28.5 1.2
      vertex 19 28.5 0
    endloop
  endfacet
  facet normal 0 1 0
    outer loop
      vertex -19 28.5 0
      vertex -19 28.5 1.2
      vertex 19 28.5 1.2
    endloop
  endfacet
  facet normal -1 0 0
    outer loop
      vertex -19 -28.5 0
      vertex -19 28.5 1.2
      vertex -19 28.5 0
    endloop
  endfacet
  facet normal -1 0 0
    outer loop
      vertex -19 -28.5 0
      vertex -19 -28.5 1.2
      vertex -19 28.5 1.2
    endloop
  endfacet
  facet normal 0 -1 0
    outer loop
      vertex 19 -28.5 0
      vertex -19 -28.5 1.2
      vertex -19 -28.5 0
    endloop
  endfacet
  facet normal 0 -1 0
    outer loop
      vertex 19 -28.5 0
      vertex 19 -28.5 1.2
      vertex -19 -28.5 1.2
    endloop
  endfacet
  facet normal 1 0 0
    outer loop
      vertex 19 28.5 0
      vertex 19 -28.5 1.2
      vertex 19 -28.5 0
    endloop
  endfacet
  facet normal 1 0 0
    outer loop
      vertex 19 28.5 0
      vertex 19 28.5 1.2
      vertex 19 -28.5 1.2
    endloop
  endfacet
  facet normal 1 0 0
    outer loop
      vertex -16.5 26 0
      vertex -16.5 26 1.2
      vertex -16.5 12 0
    endloop
  endfacet
  facet normal 1 0 0
    outer loop
      vertex -16.5 12 1.2
      vertex -16.5 12 0
      vertex -16.5 26 1.2
    endloop
  endfacet
  facet normal 0 -1 0
    outer loop
      vertex -2.5 26 0
      vertex -2.5 26 1.2
      vertex -16.5 26 0
    endloop
  endfacet
  facet normal 0 -1 0
    outer loop
      vertex -16.5 26 1.2
      vertex -16.5 26 0
      vertex -2.5 26 1.2
    endloop
  endfacet
  facet normal -1 0 0
    outer loop
      vertex -2.5 12 0
      vertex -2.5 12 1.2
      vertex -2.5 26 0
    endloop
  endfacet
  facet normal -1 0 0
    outer loop
      vertex -2.5 26 1.2
      vertex -2.5 26 0
      vertex -2.5 12 1.2
    endloop
  endfacet
  facet normal 0 1 0
    outer loop
      vertex -16.5 12 0
      vertex -16.5 12 1.2
      vertex -2.5 12 0
    endloop
  endfacet
  facet normal 0 1 0
    outer loop
      vertex -2.5 12 1.2
      vertex -2.5 12 0
      vertex -16.5 12 1.2
    endloop
  endfacet
  facet normal 1 0 0
    outer loop
      vertex 2.5 26 0
      vertex 2.5 26 1.2
      vertex 2.5 12 0
    endloop
  endfacet
  facet normal 1 0 0
    outer loop
      vertex 2.5 12 1.2
      vertex 2.5 12 0
      vertex 2.5 26 1.2
    endloop
  endfacet
  facet normal 0 -1 0
    outer loop
      vertex 16.5 26 0
      vertex 16.5 26 1.2
      vertex 2.5 26 0
    endloop
  endfacet
  facet normal 0 -1 0
    outer loop
      vertex 2.5 26 1.2
      vertex 2.5 26 0
      vertex 16.5 26 1.2
    endloop
  endfacet
  facet normal -1 0 0
    outer loop
      vertex 16.5 12 0
      vertex 16.5 12 1.2
      vertex 16.5 26 0
    endloop
  endfacet
  facet normal -1 0 0
    outer loop
      vertex 16.5 26 1.2
      vertex 16.5 26 0
      vertex 16.5 12 1.2
    endloop
  endfacet
  facet normal 0 1 0
    outer loop
      vertex 2.5 12 0
      vertex 2.5 12 1.2
      vertex 16.5 12 0
    endloop
  endfacet
  facet normal 0 1 0
    outer loop
      vertex 16.5 12 1.2
      vertex 16.5 12 0
      vertex 2.5 12 1.2
    endloop
  endfacet
  facet normal 1 0 0
    outer loop
      vertex -16.5 7 0
      vertex -16.5 7 1.2
      vertex -16.5 -7 0
    endloop
  endfacet
  facet normal 1 0 0
    outer loop
      vertex -16.5 -7 1.2
      vertex -16.5 -7 0
      vertex -16.5 7 1.2
    endloop
  endfacet
  facet normal 0 -1 0
    outer loop
      vertex -2.5 7 0
      vertex -2.5 7 1.2
      vertex -16.5 7 0
    endloop
  endfacet
  facet normal 0 -1 0
    outer loop
      vertex -16.5 7 1.2
      vertex -16.5 7 0
      vertex -2.5 7 1.2
    endloop
  endfacet
  facet normal -1 0 0
    outer loop
      vertex -2.5 -7 0
      vertex -2.5 -7 1.2
      vertex -2.5 7 0
    endloop
  endfacet
  facet normal -1 0 0
    outer loop
      vertex -2.5 7 1.2
      vertex -2.5 7 0
      vertex -2.5 -7 1.2
    endloop
  endfacet
  facet normal 0 1 0
    outer loop
      vertex -16.5 -7 0
      vertex -16.5 -7 1.2
      vertex -2.5 -7 0
    endloop
  endfacet
  facet normal 0 1 0
    outer loop
      vertex -2.5 -7 1.2
      vertex -2.5 -7 0
      vertex -16.5 -7 1.2
    endloop
  endfacet
  facet normal 1 0 0
    outer loop
      vertex 2.5 7 0
      vertex 2.5 7 1.2
      vertex 2.5 -7 0
    endloop
  endfacet
  facet normal 1 0 0
    outer loop
      vertex 2.5 -7 1.2
      vertex 2.5 -7 0
      vertex 2.5 7 1.2
    endloop
  endfacet
  facet normal 0 -1 0
    outer loop
      vertex 16.5 7 0
      vertex 16.5 7 1.2
      vertex 2.5 7 0
    endloop
  endfacet
  facet normal 0 -1 0
    outer loop
      vertex 2.5 7 1.2
      vertex 2.5 7 0
      vertex 16.5 7 1.2
    endloop
  endfacet
  facet normal -1 0 0
    outer loop
      vertex 16.5 -7 0
      vertex 16.5 -7 1.2
      vertex 16.5 7 0
    endloop
  endfacet
  facet normal -1 0 0
    outer loop
      vertex 16.5 7 1.2
      vertex 16.5 7 0
      vertex 16.5 -7 1.2
    endloop
  endfacet
  facet normal 0 1 0
    outer loop
      vertex 2.5 -7 0
      vertex 2.5 -7 1.2
      vertex 16.5 -7 0
    endloop
  endfacet
  facet normal 0 1 0
    outer loop
      vertex 16.5 -7 1.2
      vertex 16.5 -7 0
      vertex 2.5 -7 1.2
    endloop
  endfacet
  facet normal 1 0 0
    outer loop
      vertex -16.5 -12 0
      vertex -16.5 -12 1.2
      vertex -16.5 -26 0
    endloop
  endfacet
  facet normal 1 0 0
    outer loop
      vertex -16.5 -26 1.2
      vertex -16.5 -26 0
      vertex -16.5 -12 1.2
    endloop
  endfacet
  facet normal 0 -1 0
    outer loop
      vertex -2.5 -12 0
      vertex -2.5 -12 1.2
      vertex -16.5 -12 0
    endloop
  endfacet
  facet normal 0 -1 0
    outer loop
      vertex -16.5 -12 1.2
      vertex -16.5 -12 0
      vertex -2.5 -12 1.2
    endloop
  endfacet
  facet normal -1 0 0
    outer loop
      vertex -2.5 -26 0
      vertex -2.5 -26 1.2
      vertex -2.5 -12 0
    endloop
  endfacet
  facet normal -1 0 0
    outer loop
      vertex -2.5 -12 1.2
      vertex -2.5 -12 0
      vertex -2.5 -26 1.2
    endloop
  endfacet
  facet normal 0 1 0
    outer loop
      vertex -16.5 -26 0
      vertex -16.5 -26 1.2
      vertex -2.5 -26 0
    endloop
  endfacet
  facet normal 0 1 0
    outer loop
      vertex -2.5 -26 1.2
      vertex -2.5 -26 0
      vertex -16.5 -26 1.2
    endloop
  endfacet
  facet normal 1 0 0
    outer loop
      vertex 2.5 -12 0
      vertex 2.5 -12 1.2
      vertex 2.5 -26 0
    endloop
  endfacet
  facet normal 1 0 0
    outer loop
      vertex 2.5 -26 1.2
      vertex 2.5 -26 0
      vertex 2.5 -12 1.2
    endloop
  endfacet
  facet normal 0 -1 0
    outer loop
      vertex 16.5 -12 0
      vertex 16.5 -12 1.2
      vertex 2.5 -12 0
    endloop
  endfacet
  facet normal 0 -1 0
    outer loop
      vertex 2.5 -12 1.2
      vertex 2.5 -12 0
      vertex 16.5 -12 1.2
    endloop
  endfacet
  facet normal -1 0 0
    outer loop
      vertex 16.5 -26 0
      vertex 16.5 -26 1.2
      vertex 16.5 -12 0
    endloop
  endfacet
  facet normal -1 0 0
    outer loop
      vertex 16.5 -12 1.2
      vertex 16.5 -12 0
      vertex 16.5 -26 1.2
    endloop
  endfacet
  facet normal 0 1 0
    outer loop
      vertex 2.5 -26 0
      vertex 2.5 -26 1.2
      vertex 16.5 -26 0
    endloop
  endfacet
  facet normal 0 1 0
    outer loop
      vertex 16.5 -26 1.2
      vertex 16.5 -26 0
      vertex 2.5 -26 1.2
    endloop
  endfacet
  facet normal 0 0 -1
    outer loop
      vertex 16.5 -26 0
      vertex 16.5 -12 0
      vertex 19 -28.5 0
    endloop
  endfacet
  facet normal 0 0 -1
    outer loop
      vertex -2.5 -12 0
      vertex 2.5 -12 0
      vertex 2.5 -26 0
    endloop
  endfacet
  facet normal 0 0 -1
    outer loop
      vertex -2.5 -26 0
      vertex -2.5 -12 0
      vertex 2.5 -26 0
    endloop
  endfacet
  facet normal 0 0 -1
    outer loop
      vertex -2.5 7 0
      vertex 2.5 7 0
      vertex 2.5 -7 0
    endloop
  endfacet
  facet normal 0 0 -1
    outer loop
      vertex -2.5 -7 0
      vertex -2.5 7 0
      vertex 2.5 -7 0
    endloop
  endfacet
  facet normal 0 0 -1
    outer loop
      vertex -2.5 26 0
      vertex 2.5 26 0
      vertex 2.5 12 0
    endloop
  endfacet
  facet normal 0 0 -1
    outer loop
      vertex -2.5 12 0
      vertex -2.5 26 0
      vertex 2.5 12 0
    endloop
  endfacet
  facet normal 0 0 -1
    outer loop
      vertex 16.5 12 0
      vertex 16.5 26 0
      vertex 19 28.5 0
    endloop
  endfacet
  facet normal 0 0 -1
    outer loop
      vertex 16.5 12 0
      vertex 19 28.5 0
      vertex 16.5 7 0
    endloop
  endfacet
  facet normal 0 0 -1
    outer loop
      vertex 16.5 12 0
      vertex 16.5 7 0
      vertex 2.5 7 0
    endloop
  endfacet
  facet normal 0 0 -1
    outer loop
      vertex 2.5 12 0
      vertex 16.5 12 0
      vertex 2.5 7 0
    endloop
  endfacet
  facet normal 0 0 -1
    outer loop
      vertex 2.5 12 0
      vertex 2.5 7 0
      vertex -2.5 7 0
    endloop
  endfacet
  facet normal 0 0 -1
    outer loop
      vertex -2.5 12 0
      vertex 2.5 12 0
      vertex -2.5 7 0
    endloop
  endfacet
  facet normal 0 0 -1
    outer loop
      vertex -2.5 12 0
      vertex -2.5 7 0
      vertex -16.5 7 0
    endloop
  endfacet
  facet normal 0 0 -1
    outer loop
      vertex -16.5 12 0
      vertex -2.5 12 0
      vertex -16.5 7 0
    endloop
  endfacet
  facet normal 0 0 -1
    outer loop
      vertex 19 28.5 0
      vertex 16.5 26 0
      vertex 2.5 26 0
    endloop
  endfacet
  facet normal 0 0 -1
    outer loop
      vertex -19 28.5 0
      vertex 19 28.5 0
      vertex 2.5 26 0
    endloop
  endfacet
  facet normal 0 0 -1
    outer loop
      vertex -19 28.5 0
      vertex 2.5 26 0
      vertex -2.5 26 0
    endloop
  endfacet
  facet normal 0 0 -1
    outer loop
      vertex -19 28.5 0
      vertex -2.5 26 0
      vertex -16.5 26 0
    endloop
  endfacet
  facet normal 0 0 -1
    outer loop
      vertex 2.5 -26 0
      vertex 16.5 -26 0
      vertex 19 -28.5 0
    endloop
  endfacet
  facet normal 0 0 -1
    outer loop
      vertex 2.5 -26 0
      vertex 19 -28.5 0
      vertex -19 -28.5 0
    endloop
  endfacet
  facet normal 0 0 -1
    outer loop
      vertex -2.5 -26 0
      vertex 2.5 -26 0
      vertex -19 -28.5 0
    endloop
  endfacet
  facet normal 0 0 -1
    outer loop
      vertex -16.5 -26 0
      vertex -2.5 -26 0
      vertex -19 -28.5 0
    endloop
  endfacet
  facet normal 0 0 -1
    outer loop
      vertex -19 28.5 0
      vertex -16.5 26 0
      vertex -16.5 12 0
    endloop
  endfacet
  facet normal 0 0 -1
    outer loop
      vertex -16.5 -12 0
      vertex -16.5 -26 0
      vertex -19 -28.5 0
    endloop
  endfacet
  facet normal 0 0 -1
    outer loop
      vertex -19 28.5 0
      vertex -16.5 12 0
      vertex -16.5 7 0
    endloop
  endfacet
  facet normal 0 0 -1
    outer loop
      vertex 16.5 7 0
      vertex 19 28.5 0
      vertex 19 -28.5 0
    endloop
  endfacet
  facet normal 0 0 -1
    outer loop
      vertex 16.5 -7 0
      vertex 16.5 7 0
      vertex 19 -28.5 0
    endloop
  endfacet
  facet normal 0 0 -1
    outer loop
      vertex 16.5 -7 0
      vertex 19 -28.5 0
      vertex 16.5 -12 0
    endloop
  endfacet
  facet normal 0 0 -1
    outer loop
      vertex 16.5 -7 0
      vertex 16.5 -12 0
      vertex 2.5 -12 0
    endloop
  endfacet
  facet normal 0 0 -1
    outer loop
      vertex 2.5 -7 0
      vertex 16.5 -7 0
      vertex 2.5 -12 0
    endloop
  endfacet
  facet normal 0 0 -1
    outer loop
      vertex 2.5 -7 0
      vertex 2.5 -12 0
      vertex -2.5 -12 0
    endloop
  endfacet
  facet normal 0 0 -1
    outer loop
      vertex -2.5 -7 0
      vertex 2.5 -7 0
      vertex -2.5 -12 0
    endloop
  endfacet
  facet normal 0 0 -1
    outer loop
      vertex -2.5 -7 0
      vertex -2.5 -12 0
      vertex -16.5 -12 0
    endloop
  endfacet
  facet normal 0 0 -1
    outer loop
      vertex -16.5 -7 0
      vertex -2.5 -7 0
      vertex -16.5 -12 0
    endloop
  endfacet
  facet normal 0 0 -1
    outer loop
      vertex -16.5 -7 0
      vertex -16.5 -12 0
      vertex -19 -28.5 0
    endloop
  endfacet
  facet normal 0 0 -1
    outer loop
      vertex -16.5 -7 0
      vertex -19 -28.5 0
      vertex -19 28.5 0
    endloop
  endfacet
  facet normal 0 0 -1
    outer loop
      vertex -16.5 -7 0
      vertex -19 28.5 0
      vertex -16.5 7 0
    endloop
  endfacet
  facet normal 0 0 1
    outer loop
      vertex 19 -28.5 1.2
      vertex 16.5 -12 1.2
      vertex 16.5 -26 1.2
    endloop
  endfacet
  facet normal 0 0 1
    outer loop
      vertex 2.5 -26 1.2
      vertex 2.5 -12 1.2
      vertex -2.5 -12 1.2
    endloop
  endfacet
  facet normal 0 0 1
    outer loop
      vertex 2.5 -26 1.2
      vertex -2.5 -12 1.2
      vertex -2.5 -26 1.2
    endloop
  endfacet
  facet normal 0 0 1
    outer loop
      vertex 2.5 -7 1.2
      vertex 2.5 7 1.2
      vertex -2.5 7 1.2
    endloop
  endfacet
  facet normal 0 0 1
    outer loop
      vertex 2.5 -7 1.2
      vertex -2.5 7 1.2
      vertex -2.5 -7 1.2
    endloop
  endfacet
  facet normal 0 0 1
    outer loop
      vertex 2.5 12 1.2
      vertex 2.5 26 1.2
      vertex -2.5 26 1.2
    endloop
  endfacet
  facet normal 0 0 1
    outer loop
      vertex 2.5 12 1.2
      vertex -2.5 26 1.2
      vertex -2.5 12 1.2
    endloop
  endfacet
  facet normal 0 0 1
    outer loop
      vertex 19 28.5 1.2
      vertex 16.5 26 1.2
      vertex 16.5 12 1.2
    endloop
  endfacet
  facet normal 0 0 1
    outer loop
      vertex 16.5 7 1.2
      vertex 19 28.5 1.2
      vertex 16.5 12 1.2
    endloop
  endfacet
  facet normal 0 0 1
    outer loop
      vertex 2.5 7 1.2
      vertex 16.5 7 1.2
      vertex 16.5 12 1.2
    endloop
  endfacet
  facet normal 0 0 1
    outer loop
      vertex 2.5 7 1.2
      vertex 16.5 12 1.2
      vertex 2.5 12 1.2
    endloop
  endfacet
  facet normal 0 0 1
    outer loop
      vertex -2.5 7 1.2
      vertex 2.5 7 1.2
      vertex 2.5 12 1.2
    endloop
  endfacet
  facet normal 0 0 1
    outer loop
      vertex -2.5 7 1.2
      vertex 2.5 12 1.2
      vertex -2.5 12 1.2
    endloop
  endfacet
  facet normal 0 0 1
    outer loop
      vertex -16.5 7 1.2
      vertex -2.5 7 1.2
      vertex -2.5 12 1.2
    endloop
  endfacet
  facet normal 0 0 1
    outer loop
      vertex -16.5 7 1.2
      vertex -2.5 12 1.2
      vertex -16.5 12 1.2
    endloop
  endfacet
  facet normal 0 0 1
    outer loop
      vertex 2.5 26 1.2
      vertex 16.5 26 1.2
      vertex 19 28.5 1.2
    endloop
  endfacet
  facet normal 0 0 1
    outer loop
      vertex 2.5 26 1.2
      vertex 19 28.5 1.2
      vertex -19 28.5 1.2
    endloop
  endfacet
  facet normal 0 0 1
    outer loop
      vertex -2.5 26 1.2
      vertex 2.5 26 1.2
      vertex -19 28.5 1.2
    endloop
  endfacet
  facet normal 0 0 1
    outer loop
      vertex -16.5 26 1.2
      vertex -2.5 26 1.2
      vertex -19 28.5 1.2
    endloop
  endfacet
  facet normal 0 0 1
    outer loop
      vertex 19 -28.5 1.2
      vertex 16.5 -26 1.2
      vertex 2.5 -26 1.2
    endloop
  endfacet
  facet normal 0 0 1
    outer loop
      vertex -19 -28.5 1.2
      vertex 19 -28.5 1.2
      vertex 2.5 -26 1.2
    endloop
  endfacet
  facet normal 0 0 1
    outer loop
      vertex -19 -28.5 1.2
      vertex 2.5 -26 1.2
      vertex -2.5 -26 1.2
    endloop
  endfacet
  facet normal 0 0 1
    outer loop
      vertex -19 -28.5 1.2
      vertex -2.5 -26 1.2
      vertex -16.5 -26 1.2
    endloop
  endfacet
  facet normal 0 0 1
    outer loop
      vertex -16.5 12 1.2
      vertex -16.5 26 1.2
      vertex -19 28.5 1.2
    endloop
  endfacet
  facet normal 0 0 1
    outer loop
      vertex -19 -28.5 1.2
      vertex -16.5 -26 1.2
      vertex -16.5 -12 1.2
    endloop
  endfacet
  facet normal 0 0 1
    outer loop
      vertex -16.5 7 1.2
      vertex -16.5 12 1.2
      vertex -19 28.5 1.2
    endloop
  endfacet
  facet normal 0 0 1
    outer loop
      vertex 19 -28.5 1.2
      vertex 19 28.5 1.2
      vertex 16.5 7 1.2
    endloop
  endfacet
  facet normal 0 0 1
    outer loop
      vertex 19 -28.5 1.2
      vertex 16.5 7 1.2
      vertex 16.5 -7 1.2
    endloop
  endfacet
  facet normal 0 0 1
    outer loop
      vertex 16.5 -12 1.2
      vertex 19 -28.5 1.2
      vertex 16.5 -7 1.2
    endloop
  endfacet
  facet normal 0 0 1
    outer loop
      vertex 2.5 -12 1.2
      vertex 16.5 -12 1.2
      vertex 16.5 -7 1.2
    endloop
  endfacet
  facet normal 0 0 1
    outer loop
      vertex 2.5 -12 1.2
      vertex 16.5 -7 1.2
      vertex 2.5 -7 1.2
    endloop
  endfacet
  facet normal 0 0 1
    outer loop
      vertex -2.5 -12 1.2
      vertex 2.5 -12 1.2
      vertex 2.5 -7 1.2
    endloop
  endfacet
  facet normal 0 0 1
    outer loop
      vertex -2.5 -12 1.2
      vertex 2.5 -7 1.2
      vertex -2.5 -7 1.2
    endloop
  endfacet
  facet normal 0 0 1
    outer loop
      vertex -16.5 -12 1.2
      vertex -2.5 -12 1.2
      vertex -2.5 -7 1.2
    endloop
  endfacet
  facet normal 0 0 1
    outer loop
      vertex -16.5 -12 1.2
      vertex -2.5 -7 1.2
      vertex -16.5 -7 1.2
    endloop
  endfacet
  facet normal 0 0 1
    outer loop
      vertex -19 -28.5 1.2
      vertex -16.5 -12 1.2
      vertex -16.5 -7 1.2
    endloop
  endfacet
  facet normal 0 0 1
    outer loop
      vertex -19 28.5 1.2
      vertex -19 -28.5 1.2
      vertex -16.5 -7 1.2
    endloop
  endfacet
  facet normal 0 0 1
    outer loop
      vertex -16.5 7 1.2
      vertex -19 28.5 1.2
      vertex -16.5 -7 1.2
    endloop
  endfacet
endsolid OpenSCAD_Model
